<mxfile host="app.diagrams.net" modified="2024-04-02T00:43:42.221Z" agent="Mozilla/5.0 (Windows NT 10.0; Win64; x64) AppleWebKit/537.36 (KHTML, like Gecko) Chrome/123.0.0.0 Safari/537.36" etag="gLv89EyY8QEh01Tf1vCe" version="24.2.1" type="google">
  <diagram name="Page-1" id="zUgcIN8wijdxFE1jF7q4">
    <mxGraphModel grid="1" page="1" gridSize="10" guides="1" tooltips="1" connect="1" arrows="1" fold="1" pageScale="1" pageWidth="827" pageHeight="1169" math="0" shadow="0">
      <root>
        <mxCell id="0" />
        <mxCell id="1" parent="0" />
        <mxCell id="HQmQNVGnCg93iEw8X7D8-17" value="&lt;span style=&quot;font-size: 24px;&quot;&gt;Nhân viên&lt;/span&gt;" style="swimlane;whiteSpace=wrap;html=1;" vertex="1" parent="1">
          <mxGeometry x="990" y="400" width="1190" height="2830" as="geometry" />
        </mxCell>
        <mxCell id="HQmQNVGnCg93iEw8X7D8-58" style="edgeStyle=orthogonalEdgeStyle;rounded=0;orthogonalLoop=1;jettySize=auto;html=1;exitX=1;exitY=0.5;exitDx=0;exitDy=0;entryX=0;entryY=0.5;entryDx=0;entryDy=0;" edge="1" parent="HQmQNVGnCg93iEw8X7D8-17" source="HQmQNVGnCg93iEw8X7D8-56" target="HQmQNVGnCg93iEw8X7D8-57">
          <mxGeometry relative="1" as="geometry" />
        </mxCell>
        <mxCell id="HQmQNVGnCg93iEw8X7D8-56" value="&lt;div&gt;&lt;span style=&quot;font-size: 18px;&quot;&gt;&lt;br&gt;&lt;/span&gt;&lt;/div&gt;&lt;div&gt;&lt;span style=&quot;font-size: 18px;&quot;&gt;&lt;br&gt;&lt;/span&gt;&lt;/div&gt;&lt;div style=&quot;font-size: 18px;&quot;&gt;&lt;br&gt;&lt;/div&gt;&lt;div style=&quot;font-size: 18px;&quot;&gt;Xem phương thức thanh toán&lt;/div&gt;" style="html=1;align=center;verticalAlign=top;rounded=1;absoluteArcSize=1;arcSize=10;dashed=0;whiteSpace=wrap;fillColor=#dae8fc;strokeColor=#6c8ebf;" vertex="1" parent="HQmQNVGnCg93iEw8X7D8-17">
          <mxGeometry x="150" y="975" width="250" height="150" as="geometry" />
        </mxCell>
        <mxCell id="HQmQNVGnCg93iEw8X7D8-59" style="edgeStyle=orthogonalEdgeStyle;rounded=0;orthogonalLoop=1;jettySize=auto;html=1;exitX=1;exitY=0.5;exitDx=0;exitDy=0;entryX=0.5;entryY=0;entryDx=0;entryDy=0;" edge="1" parent="HQmQNVGnCg93iEw8X7D8-17" source="HQmQNVGnCg93iEw8X7D8-57" target="HQmQNVGnCg93iEw8X7D8-66">
          <mxGeometry relative="1" as="geometry">
            <mxPoint x="910" y="1045.363636363636" as="targetPoint" />
          </mxGeometry>
        </mxCell>
        <mxCell id="HQmQNVGnCg93iEw8X7D8-61" value="&lt;font color=&quot;#ff0000&quot;&gt;&lt;span style=&quot;font-size: 18px;&quot;&gt;Chuyển khoản&lt;/span&gt;&lt;/font&gt;" style="edgeLabel;html=1;align=center;verticalAlign=middle;resizable=0;points=[];" connectable="0" vertex="1" parent="HQmQNVGnCg93iEw8X7D8-59">
          <mxGeometry x="-0.344" relative="1" as="geometry">
            <mxPoint as="offset" />
          </mxGeometry>
        </mxCell>
        <mxCell id="HQmQNVGnCg93iEw8X7D8-60" style="edgeStyle=orthogonalEdgeStyle;rounded=0;orthogonalLoop=1;jettySize=auto;html=1;exitX=0.5;exitY=1;exitDx=0;exitDy=0;entryX=0.5;entryY=0;entryDx=0;entryDy=0;" edge="1" parent="HQmQNVGnCg93iEw8X7D8-17" source="HQmQNVGnCg93iEw8X7D8-57" target="HQmQNVGnCg93iEw8X7D8-63">
          <mxGeometry relative="1" as="geometry">
            <mxPoint x="690" y="1290" as="targetPoint" />
          </mxGeometry>
        </mxCell>
        <mxCell id="HQmQNVGnCg93iEw8X7D8-62" value="&lt;font color=&quot;#ff0000&quot; style=&quot;font-size: 18px;&quot;&gt;Tiền mặt&lt;/font&gt;" style="edgeLabel;html=1;align=center;verticalAlign=middle;resizable=0;points=[];" connectable="0" vertex="1" parent="HQmQNVGnCg93iEw8X7D8-60">
          <mxGeometry x="-0.2205" y="4" relative="1" as="geometry">
            <mxPoint as="offset" />
          </mxGeometry>
        </mxCell>
        <mxCell id="HQmQNVGnCg93iEw8X7D8-57" value="" style="rhombus;whiteSpace=wrap;html=1;fillColor=#fff2cc;strokeColor=#d6b656;" vertex="1" parent="HQmQNVGnCg93iEw8X7D8-17">
          <mxGeometry x="555" y="990" width="180" height="120" as="geometry" />
        </mxCell>
        <mxCell id="HQmQNVGnCg93iEw8X7D8-67" style="edgeStyle=orthogonalEdgeStyle;rounded=0;orthogonalLoop=1;jettySize=auto;html=1;entryX=0;entryY=0.5;entryDx=0;entryDy=0;exitX=0.5;exitY=1;exitDx=0;exitDy=0;" edge="1" parent="HQmQNVGnCg93iEw8X7D8-17" source="HQmQNVGnCg93iEw8X7D8-63" target="HQmQNVGnCg93iEw8X7D8-66">
          <mxGeometry relative="1" as="geometry">
            <mxPoint x="530" y="1470" as="sourcePoint" />
          </mxGeometry>
        </mxCell>
        <mxCell id="HQmQNVGnCg93iEw8X7D8-63" value="&lt;div&gt;&lt;span style=&quot;font-size: 18px;&quot;&gt;&lt;br&gt;&lt;/span&gt;&lt;/div&gt;&lt;div&gt;&lt;span style=&quot;font-size: 18px;&quot;&gt;&lt;br&gt;&lt;/span&gt;&lt;/div&gt;&lt;div style=&quot;font-size: 18px;&quot;&gt;Lấy tiền trực tiếp từ khách hàng&lt;/div&gt;" style="html=1;align=center;verticalAlign=top;rounded=1;absoluteArcSize=1;arcSize=10;dashed=0;whiteSpace=wrap;fillColor=#dae8fc;strokeColor=#6c8ebf;" vertex="1" parent="HQmQNVGnCg93iEw8X7D8-17">
          <mxGeometry x="520" y="1310" width="250" height="150" as="geometry" />
        </mxCell>
        <mxCell id="HQmQNVGnCg93iEw8X7D8-68" style="edgeStyle=orthogonalEdgeStyle;rounded=0;orthogonalLoop=1;jettySize=auto;html=1;exitX=0.5;exitY=1;exitDx=0;exitDy=0;entryX=0.5;entryY=0;entryDx=0;entryDy=0;" edge="1" parent="HQmQNVGnCg93iEw8X7D8-17" source="HQmQNVGnCg93iEw8X7D8-66" target="HQmQNVGnCg93iEw8X7D8-69">
          <mxGeometry relative="1" as="geometry">
            <mxPoint x="839.9090909090901" y="1730" as="targetPoint" />
          </mxGeometry>
        </mxCell>
        <mxCell id="HQmQNVGnCg93iEw8X7D8-66" value="" style="rhombus;whiteSpace=wrap;html=1;fillColor=#fff2cc;strokeColor=#d6b656;" vertex="1" parent="HQmQNVGnCg93iEw8X7D8-17">
          <mxGeometry x="855" y="1530" width="180" height="120" as="geometry" />
        </mxCell>
        <mxCell id="HQmQNVGnCg93iEw8X7D8-69" value="&lt;div&gt;&lt;span style=&quot;font-size: 18px;&quot;&gt;&lt;br&gt;&lt;/span&gt;&lt;/div&gt;&lt;div&gt;&lt;span style=&quot;font-size: 18px;&quot;&gt;&lt;br&gt;&lt;/span&gt;&lt;/div&gt;&lt;div style=&quot;font-size: 18px;&quot;&gt;Kích nút xác nhận đơn&lt;/div&gt;" style="html=1;align=center;verticalAlign=top;rounded=1;absoluteArcSize=1;arcSize=10;dashed=0;whiteSpace=wrap;fillColor=#dae8fc;strokeColor=#6c8ebf;" vertex="1" parent="HQmQNVGnCg93iEw8X7D8-17">
          <mxGeometry x="820" y="1780" width="250" height="150" as="geometry" />
        </mxCell>
        <mxCell id="HQmQNVGnCg93iEw8X7D8-18" value="&lt;span style=&quot;font-size: 24px;&quot;&gt;Khách hàng&lt;/span&gt;" style="swimlane;whiteSpace=wrap;html=1;" vertex="1" parent="1">
          <mxGeometry x="-1850" y="400" width="1240" height="2830" as="geometry" />
        </mxCell>
        <mxCell id="HQmQNVGnCg93iEw8X7D8-20" value="" style="ellipse;html=1;shape=startState;fillColor=#000000;strokeColor=#ff0000;" vertex="1" parent="HQmQNVGnCg93iEw8X7D8-18">
          <mxGeometry x="20" y="110" width="50" height="50" as="geometry" />
        </mxCell>
        <mxCell id="HQmQNVGnCg93iEw8X7D8-22" value="&lt;div&gt;&lt;span style=&quot;font-size: 18px;&quot;&gt;&lt;br&gt;&lt;/span&gt;&lt;/div&gt;&lt;span style=&quot;font-size: 18px;&quot;&gt;&lt;div&gt;&lt;span style=&quot;font-size: 18px;&quot;&gt;&lt;br&gt;&lt;/span&gt;&lt;/div&gt;Thực hiện chức năng thanh toán&lt;/span&gt;" style="html=1;align=center;verticalAlign=top;rounded=1;absoluteArcSize=1;arcSize=10;dashed=0;whiteSpace=wrap;fillColor=#dae8fc;strokeColor=#6c8ebf;" vertex="1" parent="HQmQNVGnCg93iEw8X7D8-18">
          <mxGeometry x="160" y="60" width="250" height="150" as="geometry" />
        </mxCell>
        <mxCell id="HQmQNVGnCg93iEw8X7D8-21" value="" style="edgeStyle=orthogonalEdgeStyle;html=1;verticalAlign=bottom;endArrow=open;endSize=8;strokeColor=#ff0000;rounded=0;entryX=0;entryY=0.5;entryDx=0;entryDy=0;" edge="1" parent="HQmQNVGnCg93iEw8X7D8-18" source="HQmQNVGnCg93iEw8X7D8-20" target="HQmQNVGnCg93iEw8X7D8-22">
          <mxGeometry relative="1" as="geometry">
            <mxPoint x="120" y="230" as="targetPoint" />
          </mxGeometry>
        </mxCell>
        <mxCell id="HQmQNVGnCg93iEw8X7D8-40" style="edgeStyle=orthogonalEdgeStyle;rounded=0;orthogonalLoop=1;jettySize=auto;html=1;exitX=0.5;exitY=1;exitDx=0;exitDy=0;entryX=0.5;entryY=0;entryDx=0;entryDy=0;" edge="1" parent="HQmQNVGnCg93iEw8X7D8-18" source="HQmQNVGnCg93iEw8X7D8-38" target="HQmQNVGnCg93iEw8X7D8-39">
          <mxGeometry relative="1" as="geometry" />
        </mxCell>
        <mxCell id="HQmQNVGnCg93iEw8X7D8-38" value="&lt;br&gt;&lt;div&gt;&lt;div style=&quot;font-size: 18px;&quot;&gt;&lt;br&gt;&lt;/div&gt;&lt;span style=&quot;font-size: 18px;&quot;&gt;&lt;div&gt;&lt;span style=&quot;font-size: 18px;&quot;&gt;&lt;br&gt;&lt;/span&gt;&lt;/div&gt;Chọn phương thức thanh toán&lt;/span&gt;&lt;br&gt;&lt;/div&gt;" style="html=1;align=center;verticalAlign=top;rounded=1;absoluteArcSize=1;arcSize=10;dashed=0;whiteSpace=wrap;fillColor=#dae8fc;strokeColor=#6c8ebf;" vertex="1" parent="HQmQNVGnCg93iEw8X7D8-18">
          <mxGeometry x="420" y="345" width="250" height="150" as="geometry" />
        </mxCell>
        <mxCell id="HQmQNVGnCg93iEw8X7D8-43" style="edgeStyle=orthogonalEdgeStyle;rounded=0;orthogonalLoop=1;jettySize=auto;html=1;exitX=0;exitY=0.5;exitDx=0;exitDy=0;entryX=0.5;entryY=0;entryDx=0;entryDy=0;" edge="1" parent="HQmQNVGnCg93iEw8X7D8-18" source="HQmQNVGnCg93iEw8X7D8-39" target="HQmQNVGnCg93iEw8X7D8-42">
          <mxGeometry relative="1" as="geometry" />
        </mxCell>
        <mxCell id="HQmQNVGnCg93iEw8X7D8-44" style="edgeStyle=orthogonalEdgeStyle;rounded=0;orthogonalLoop=1;jettySize=auto;html=1;exitX=1;exitY=0.5;exitDx=0;exitDy=0;entryX=0.5;entryY=0;entryDx=0;entryDy=0;" edge="1" parent="HQmQNVGnCg93iEw8X7D8-18" source="HQmQNVGnCg93iEw8X7D8-39" target="HQmQNVGnCg93iEw8X7D8-41">
          <mxGeometry relative="1" as="geometry" />
        </mxCell>
        <mxCell id="HQmQNVGnCg93iEw8X7D8-39" value="" style="rhombus;whiteSpace=wrap;html=1;fillColor=#fff2cc;strokeColor=#d6b656;" vertex="1" parent="HQmQNVGnCg93iEw8X7D8-18">
          <mxGeometry x="455" y="590" width="180" height="120" as="geometry" />
        </mxCell>
        <mxCell id="HQmQNVGnCg93iEw8X7D8-41" value="&lt;div&gt;&lt;span style=&quot;font-size: 18px;&quot;&gt;&lt;br&gt;&lt;/span&gt;&lt;/div&gt;&lt;span style=&quot;font-size: 18px;&quot;&gt;&lt;div&gt;&lt;span style=&quot;font-size: 18px;&quot;&gt;&lt;br&gt;&lt;/span&gt;&lt;/div&gt;Thanh toán bằng chuyển khoản&lt;/span&gt;" style="html=1;align=center;verticalAlign=top;rounded=1;absoluteArcSize=1;arcSize=10;dashed=0;whiteSpace=wrap;fillColor=#dae8fc;strokeColor=#6c8ebf;" vertex="1" parent="HQmQNVGnCg93iEw8X7D8-18">
          <mxGeometry x="690" y="690" width="250" height="150" as="geometry" />
        </mxCell>
        <mxCell id="HQmQNVGnCg93iEw8X7D8-42" value="&lt;br&gt;&lt;div&gt;&lt;div style=&quot;font-size: 18px;&quot;&gt;&lt;br&gt;&lt;/div&gt;&lt;span style=&quot;font-size: 18px;&quot;&gt;&lt;div&gt;&lt;span style=&quot;font-size: 18px;&quot;&gt;&lt;br&gt;&lt;/span&gt;&lt;/div&gt;Thanh toán bằng tiền mặt&lt;/span&gt;&lt;/div&gt;" style="html=1;align=center;verticalAlign=top;rounded=1;absoluteArcSize=1;arcSize=10;dashed=0;whiteSpace=wrap;fillColor=#dae8fc;strokeColor=#6c8ebf;" vertex="1" parent="HQmQNVGnCg93iEw8X7D8-18">
          <mxGeometry x="140" y="690" width="250" height="150" as="geometry" />
        </mxCell>
        <mxCell id="HQmQNVGnCg93iEw8X7D8-19" value="&lt;span style=&quot;font-size: 24px;&quot;&gt;Hệ thống&lt;/span&gt;" style="swimlane;whiteSpace=wrap;html=1;" vertex="1" parent="1">
          <mxGeometry x="-610" y="400" width="1600" height="2840" as="geometry" />
        </mxCell>
        <mxCell id="HQmQNVGnCg93iEw8X7D8-30" style="edgeStyle=orthogonalEdgeStyle;rounded=0;orthogonalLoop=1;jettySize=auto;html=1;exitX=0.5;exitY=1;exitDx=0;exitDy=0;entryX=0.5;entryY=0;entryDx=0;entryDy=0;" edge="1" parent="HQmQNVGnCg93iEw8X7D8-19" source="HQmQNVGnCg93iEw8X7D8-25" target="HQmQNVGnCg93iEw8X7D8-29">
          <mxGeometry relative="1" as="geometry" />
        </mxCell>
        <mxCell id="HQmQNVGnCg93iEw8X7D8-25" value="&lt;div&gt;&lt;span style=&quot;font-size: 18px;&quot;&gt;&lt;br&gt;&lt;/span&gt;&lt;/div&gt;&lt;span style=&quot;font-size: 18px;&quot;&gt;&lt;div&gt;&lt;span style=&quot;font-size: 18px;&quot;&gt;&lt;br&gt;&lt;/span&gt;&lt;/div&gt;&lt;div&gt;&lt;span style=&quot;font-size: 18px;&quot;&gt;&lt;br&gt;&lt;/span&gt;&lt;/div&gt;Kiểm tra giỏ hàng&lt;/span&gt;" style="html=1;align=center;verticalAlign=top;rounded=1;absoluteArcSize=1;arcSize=10;dashed=0;whiteSpace=wrap;fillColor=#dae8fc;strokeColor=#6c8ebf;" vertex="1" parent="HQmQNVGnCg93iEw8X7D8-19">
          <mxGeometry x="250" y="60" width="250" height="150" as="geometry" />
        </mxCell>
        <mxCell id="HQmQNVGnCg93iEw8X7D8-33" style="edgeStyle=orthogonalEdgeStyle;rounded=0;orthogonalLoop=1;jettySize=auto;html=1;exitX=1;exitY=0.5;exitDx=0;exitDy=0;entryX=0.5;entryY=0;entryDx=0;entryDy=0;" edge="1" parent="HQmQNVGnCg93iEw8X7D8-19" source="HQmQNVGnCg93iEw8X7D8-29" target="HQmQNVGnCg93iEw8X7D8-32">
          <mxGeometry relative="1" as="geometry" />
        </mxCell>
        <mxCell id="HQmQNVGnCg93iEw8X7D8-34" value="&lt;font color=&quot;#ff0000&quot; style=&quot;font-size: 18px;&quot;&gt;&amp;lt;= 0&lt;/font&gt;" style="edgeLabel;html=1;align=center;verticalAlign=middle;resizable=0;points=[];" connectable="0" vertex="1" parent="HQmQNVGnCg93iEw8X7D8-33">
          <mxGeometry x="-0.539" y="6" relative="1" as="geometry">
            <mxPoint as="offset" />
          </mxGeometry>
        </mxCell>
        <mxCell id="HQmQNVGnCg93iEw8X7D8-29" value="&lt;font size=&quot;3&quot;&gt;Tổng số tiền của đơn&lt;/font&gt;" style="rhombus;whiteSpace=wrap;html=1;fillColor=#fff2cc;strokeColor=#d6b656;" vertex="1" parent="HQmQNVGnCg93iEw8X7D8-19">
          <mxGeometry x="285" y="360" width="180" height="120" as="geometry" />
        </mxCell>
        <mxCell id="HQmQNVGnCg93iEw8X7D8-32" value="&lt;div&gt;&lt;span style=&quot;font-size: 18px;&quot;&gt;&lt;br&gt;&lt;/span&gt;&lt;/div&gt;&lt;div&gt;&lt;span style=&quot;font-size: 18px;&quot;&gt;&lt;br&gt;&lt;/span&gt;&lt;/div&gt;&lt;span style=&quot;font-size: 18px;&quot;&gt;&lt;div&gt;&lt;span style=&quot;background-color: initial;&quot;&gt;Hiển thị thông báo&amp;nbsp;“ Không có đồ uống trong giỏ hàng, vui lòng chọn món&amp;nbsp; “&lt;/span&gt;&lt;br&gt;&lt;/div&gt;&lt;/span&gt;" style="html=1;align=center;verticalAlign=top;rounded=1;absoluteArcSize=1;arcSize=10;dashed=0;whiteSpace=wrap;fillColor=#dae8fc;strokeColor=#6c8ebf;" vertex="1" parent="HQmQNVGnCg93iEw8X7D8-19">
          <mxGeometry x="790" y="630" width="250" height="150" as="geometry" />
        </mxCell>
        <mxCell id="HQmQNVGnCg93iEw8X7D8-53" style="edgeStyle=orthogonalEdgeStyle;rounded=0;orthogonalLoop=1;jettySize=auto;html=1;exitX=1;exitY=0.5;exitDx=0;exitDy=0;entryX=0;entryY=0.5;entryDx=0;entryDy=0;" edge="1" parent="HQmQNVGnCg93iEw8X7D8-19" source="HQmQNVGnCg93iEw8X7D8-49" target="HQmQNVGnCg93iEw8X7D8-52">
          <mxGeometry relative="1" as="geometry" />
        </mxCell>
        <mxCell id="HQmQNVGnCg93iEw8X7D8-49" value="&lt;div&gt;&lt;span style=&quot;font-size: 18px;&quot;&gt;&lt;br&gt;&lt;/span&gt;&lt;/div&gt;&lt;div&gt;&lt;span style=&quot;font-size: 18px;&quot;&gt;&lt;br&gt;&lt;/span&gt;&lt;/div&gt;&lt;div style=&quot;font-size: 18px;&quot;&gt;&lt;span style=&quot;background-color: initial;&quot;&gt;&lt;br&gt;&lt;/span&gt;&lt;/div&gt;&lt;div style=&quot;font-size: 18px;&quot;&gt;&lt;span style=&quot;background-color: initial;&quot;&gt;Xác nhận thông tin hóa đơn&lt;/span&gt;&lt;br&gt;&lt;/div&gt;" style="html=1;align=center;verticalAlign=top;rounded=1;absoluteArcSize=1;arcSize=10;dashed=0;whiteSpace=wrap;fillColor=#dae8fc;strokeColor=#6c8ebf;" vertex="1" parent="HQmQNVGnCg93iEw8X7D8-19">
          <mxGeometry x="197" y="975" width="250" height="150" as="geometry" />
        </mxCell>
        <mxCell id="HQmQNVGnCg93iEw8X7D8-52" value="&lt;div&gt;&lt;span style=&quot;font-size: 18px;&quot;&gt;&lt;br&gt;&lt;/span&gt;&lt;/div&gt;&lt;div&gt;&lt;span style=&quot;font-size: 18px;&quot;&gt;&lt;br&gt;&lt;/span&gt;&lt;/div&gt;&lt;div style=&quot;font-size: 18px;&quot;&gt;&lt;br&gt;&lt;/div&gt;&lt;div style=&quot;font-size: 18px;&quot;&gt;Hiển thị đơn&amp;nbsp;&lt;/div&gt;" style="html=1;align=center;verticalAlign=top;rounded=1;absoluteArcSize=1;arcSize=10;dashed=0;whiteSpace=wrap;fillColor=#dae8fc;strokeColor=#6c8ebf;" vertex="1" parent="HQmQNVGnCg93iEw8X7D8-19">
          <mxGeometry x="960" y="975" width="250" height="150" as="geometry" />
        </mxCell>
        <mxCell id="HQmQNVGnCg93iEw8X7D8-74" style="edgeStyle=orthogonalEdgeStyle;rounded=0;orthogonalLoop=1;jettySize=auto;html=1;exitX=0.5;exitY=1;exitDx=0;exitDy=0;entryX=0.5;entryY=0;entryDx=0;entryDy=0;" edge="1" parent="HQmQNVGnCg93iEw8X7D8-19" source="HQmQNVGnCg93iEw8X7D8-72" target="HQmQNVGnCg93iEw8X7D8-76">
          <mxGeometry relative="1" as="geometry" />
        </mxCell>
        <mxCell id="HQmQNVGnCg93iEw8X7D8-72" value="&lt;div&gt;&lt;span style=&quot;font-size: 18px;&quot;&gt;&lt;br&gt;&lt;/span&gt;&lt;/div&gt;&lt;div&gt;&lt;span style=&quot;font-size: 18px;&quot;&gt;&lt;br&gt;&lt;/span&gt;&lt;/div&gt;&lt;div style=&quot;font-size: 18px;&quot;&gt;&lt;br&gt;&lt;/div&gt;&lt;div style=&quot;&quot;&gt;&lt;span style=&quot;font-size: 18px;&quot;&gt;Lưu thông tin hóa đơn&lt;/span&gt;&lt;br&gt;&lt;/div&gt;" style="html=1;align=center;verticalAlign=top;rounded=1;absoluteArcSize=1;arcSize=10;dashed=0;whiteSpace=wrap;fillColor=#dae8fc;strokeColor=#6c8ebf;" vertex="1" parent="HQmQNVGnCg93iEw8X7D8-19">
          <mxGeometry x="390" y="1780" width="250" height="150" as="geometry" />
        </mxCell>
        <mxCell id="HQmQNVGnCg93iEw8X7D8-75" style="edgeStyle=orthogonalEdgeStyle;rounded=0;orthogonalLoop=1;jettySize=auto;html=1;exitX=1;exitY=0.5;exitDx=0;exitDy=0;entryX=0;entryY=0.5;entryDx=0;entryDy=0;" edge="1" parent="HQmQNVGnCg93iEw8X7D8-19" source="HQmQNVGnCg93iEw8X7D8-73" target="U0ysnFSJP8HVc643gVS8-1">
          <mxGeometry relative="1" as="geometry" />
        </mxCell>
        <mxCell id="HQmQNVGnCg93iEw8X7D8-73" value="&lt;div&gt;&lt;span style=&quot;font-size: 18px;&quot;&gt;&lt;br&gt;&lt;/span&gt;&lt;/div&gt;&lt;div&gt;&lt;span style=&quot;font-size: 18px;&quot;&gt;&lt;br&gt;&lt;/span&gt;&lt;/div&gt;&lt;div style=&quot;font-size: 18px;&quot;&gt;&lt;br&gt;&lt;/div&gt;&lt;div style=&quot;&quot;&gt;&lt;span style=&quot;font-size: 18px;&quot;&gt;In hóa đơn&lt;/span&gt;&lt;/div&gt;" style="html=1;align=center;verticalAlign=top;rounded=1;absoluteArcSize=1;arcSize=10;dashed=0;whiteSpace=wrap;fillColor=#dae8fc;strokeColor=#6c8ebf;" vertex="1" parent="HQmQNVGnCg93iEw8X7D8-19">
          <mxGeometry x="390" y="2448" width="250" height="150" as="geometry" />
        </mxCell>
        <mxCell id="HQmQNVGnCg93iEw8X7D8-51" style="edgeStyle=orthogonalEdgeStyle;rounded=0;orthogonalLoop=1;jettySize=auto;html=1;exitX=1;exitY=0.5;exitDx=0;exitDy=0;entryX=0.5;entryY=0;entryDx=0;entryDy=0;" edge="1" parent="HQmQNVGnCg93iEw8X7D8-19" source="HQmQNVGnCg93iEw8X7D8-32" target="U0ysnFSJP8HVc643gVS8-1">
          <mxGeometry relative="1" as="geometry" />
        </mxCell>
        <mxCell id="HQmQNVGnCg93iEw8X7D8-77" style="edgeStyle=orthogonalEdgeStyle;rounded=0;orthogonalLoop=1;jettySize=auto;html=1;exitX=0.5;exitY=1;exitDx=0;exitDy=0;entryX=0.5;entryY=0;entryDx=0;entryDy=0;" edge="1" parent="HQmQNVGnCg93iEw8X7D8-19" source="HQmQNVGnCg93iEw8X7D8-76" target="HQmQNVGnCg93iEw8X7D8-73">
          <mxGeometry relative="1" as="geometry" />
        </mxCell>
        <mxCell id="HQmQNVGnCg93iEw8X7D8-79" value="&lt;font color=&quot;#ff0000&quot; style=&quot;font-size: 18px;&quot;&gt;Lưu thành công&lt;/font&gt;" style="edgeLabel;html=1;align=center;verticalAlign=middle;resizable=0;points=[];" connectable="0" vertex="1" parent="HQmQNVGnCg93iEw8X7D8-77">
          <mxGeometry x="-0.3943" y="-1" relative="1" as="geometry">
            <mxPoint y="1" as="offset" />
          </mxGeometry>
        </mxCell>
        <mxCell id="HQmQNVGnCg93iEw8X7D8-81" style="edgeStyle=orthogonalEdgeStyle;rounded=0;orthogonalLoop=1;jettySize=auto;html=1;exitX=1;exitY=0.5;exitDx=0;exitDy=0;entryX=0;entryY=0.5;entryDx=0;entryDy=0;" edge="1" parent="HQmQNVGnCg93iEw8X7D8-19" source="HQmQNVGnCg93iEw8X7D8-76" target="HQmQNVGnCg93iEw8X7D8-84">
          <mxGeometry relative="1" as="geometry" />
        </mxCell>
        <mxCell id="HQmQNVGnCg93iEw8X7D8-83" value="&lt;font color=&quot;#ff0000&quot;&gt;&lt;span style=&quot;font-size: 18px;&quot;&gt;Lưu không thành công&lt;/span&gt;&lt;/font&gt;" style="edgeLabel;html=1;align=center;verticalAlign=middle;resizable=0;points=[];" connectable="0" vertex="1" parent="HQmQNVGnCg93iEw8X7D8-81">
          <mxGeometry x="-0.4173" y="6" relative="1" as="geometry">
            <mxPoint x="-1" as="offset" />
          </mxGeometry>
        </mxCell>
        <mxCell id="HQmQNVGnCg93iEw8X7D8-76" value="" style="rhombus;whiteSpace=wrap;html=1;fillColor=#fff2cc;strokeColor=#d6b656;" vertex="1" parent="HQmQNVGnCg93iEw8X7D8-19">
          <mxGeometry x="437.5" y="2070" width="155" height="120" as="geometry" />
        </mxCell>
        <mxCell id="HQmQNVGnCg93iEw8X7D8-85" style="edgeStyle=orthogonalEdgeStyle;rounded=0;orthogonalLoop=1;jettySize=auto;html=1;exitX=1;exitY=0.5;exitDx=0;exitDy=0;entryX=0;entryY=0;entryDx=0;entryDy=0;" edge="1" parent="HQmQNVGnCg93iEw8X7D8-19" source="HQmQNVGnCg93iEw8X7D8-84" target="U0ysnFSJP8HVc643gVS8-1">
          <mxGeometry relative="1" as="geometry" />
        </mxCell>
        <mxCell id="HQmQNVGnCg93iEw8X7D8-84" value="&lt;div&gt;&lt;span style=&quot;font-size: 18px;&quot;&gt;&lt;br&gt;&lt;/span&gt;&lt;/div&gt;&lt;div&gt;&lt;span style=&quot;font-size: 18px;&quot;&gt;&lt;br&gt;&lt;/span&gt;&lt;/div&gt;&lt;div style=&quot;font-size: 18px;&quot;&gt;&lt;br&gt;&lt;/div&gt;&lt;div style=&quot;&quot;&gt;&lt;span style=&quot;font-size: 18px;&quot;&gt;Hiển thị thông báo &quot; Có lỗi xảy ra &quot;&lt;/span&gt;&lt;/div&gt;" style="html=1;align=center;verticalAlign=top;rounded=1;absoluteArcSize=1;arcSize=10;dashed=0;whiteSpace=wrap;fillColor=#dae8fc;strokeColor=#6c8ebf;" vertex="1" parent="HQmQNVGnCg93iEw8X7D8-19">
          <mxGeometry x="990" y="2045" width="250" height="150" as="geometry" />
        </mxCell>
        <mxCell id="U0ysnFSJP8HVc643gVS8-1" value="" style="ellipse;html=1;shape=endState;fillColor=#000000;strokeColor=#ff0000;" vertex="1" parent="HQmQNVGnCg93iEw8X7D8-19">
          <mxGeometry x="1437" y="2498" width="50" height="50" as="geometry" />
        </mxCell>
        <mxCell id="HQmQNVGnCg93iEw8X7D8-28" style="edgeStyle=orthogonalEdgeStyle;rounded=0;orthogonalLoop=1;jettySize=auto;html=1;exitX=1;exitY=0.5;exitDx=0;exitDy=0;entryX=0;entryY=0.5;entryDx=0;entryDy=0;" edge="1" parent="1" source="HQmQNVGnCg93iEw8X7D8-22" target="HQmQNVGnCg93iEw8X7D8-25">
          <mxGeometry relative="1" as="geometry" />
        </mxCell>
        <mxCell id="HQmQNVGnCg93iEw8X7D8-55" style="edgeStyle=orthogonalEdgeStyle;rounded=0;orthogonalLoop=1;jettySize=auto;html=1;exitX=1;exitY=0.5;exitDx=0;exitDy=0;entryX=0;entryY=0.5;entryDx=0;entryDy=0;" edge="1" parent="1" source="HQmQNVGnCg93iEw8X7D8-52" target="HQmQNVGnCg93iEw8X7D8-56">
          <mxGeometry relative="1" as="geometry">
            <mxPoint x="1220" y="1440" as="targetPoint" />
          </mxGeometry>
        </mxCell>
        <mxCell id="HQmQNVGnCg93iEw8X7D8-71" style="edgeStyle=orthogonalEdgeStyle;rounded=0;orthogonalLoop=1;jettySize=auto;html=1;exitX=0;exitY=0.5;exitDx=0;exitDy=0;entryX=1;entryY=0.5;entryDx=0;entryDy=0;" edge="1" parent="1" source="HQmQNVGnCg93iEw8X7D8-69" target="HQmQNVGnCg93iEw8X7D8-72">
          <mxGeometry relative="1" as="geometry">
            <mxPoint x="260" y="2010" as="targetPoint" />
          </mxGeometry>
        </mxCell>
        <mxCell id="HQmQNVGnCg93iEw8X7D8-35" style="edgeStyle=orthogonalEdgeStyle;rounded=0;orthogonalLoop=1;jettySize=auto;html=1;exitX=0;exitY=0.5;exitDx=0;exitDy=0;entryX=1;entryY=0.5;entryDx=0;entryDy=0;" edge="1" parent="1" source="HQmQNVGnCg93iEw8X7D8-29" target="HQmQNVGnCg93iEw8X7D8-38">
          <mxGeometry relative="1" as="geometry">
            <mxPoint x="-1150" y="819" as="targetPoint" />
            <mxPoint x="-295" y="819" as="sourcePoint" />
          </mxGeometry>
        </mxCell>
        <mxCell id="HQmQNVGnCg93iEw8X7D8-36" value="&lt;font color=&quot;#ff0000&quot; style=&quot;font-size: 18px;&quot;&gt;&amp;gt; 0&amp;nbsp;&lt;/font&gt;" style="edgeLabel;html=1;align=center;verticalAlign=middle;resizable=0;points=[];" connectable="0" vertex="1" parent="HQmQNVGnCg93iEw8X7D8-35">
          <mxGeometry x="-0.0895" y="2" relative="1" as="geometry">
            <mxPoint as="offset" />
          </mxGeometry>
        </mxCell>
        <mxCell id="HQmQNVGnCg93iEw8X7D8-47" style="edgeStyle=orthogonalEdgeStyle;rounded=0;orthogonalLoop=1;jettySize=auto;html=1;exitX=0.5;exitY=1;exitDx=0;exitDy=0;entryX=0;entryY=0.5;entryDx=0;entryDy=0;" edge="1" parent="1" source="HQmQNVGnCg93iEw8X7D8-41" target="HQmQNVGnCg93iEw8X7D8-49">
          <mxGeometry relative="1" as="geometry" />
        </mxCell>
        <mxCell id="HQmQNVGnCg93iEw8X7D8-46" style="edgeStyle=orthogonalEdgeStyle;rounded=0;orthogonalLoop=1;jettySize=auto;html=1;exitX=0.5;exitY=1;exitDx=0;exitDy=0;entryX=0;entryY=0.5;entryDx=0;entryDy=0;" edge="1" parent="1" source="HQmQNVGnCg93iEw8X7D8-42" target="HQmQNVGnCg93iEw8X7D8-49">
          <mxGeometry relative="1" as="geometry">
            <mxPoint x="-1395" y="1350" as="targetPoint" />
          </mxGeometry>
        </mxCell>
      </root>
    </mxGraphModel>
  </diagram>
</mxfile>
